<svg xmlns="http://www.w3.org/2000/svg" width="1280" height="820" viewBox="0 0 1280 820" role="img" aria-labelledby="title desc">
  <title id="title">Agentic LinkedIn career workflow</title>
  <desc id="desc">A visual workflow showing profile inputs, public LinkedIn search, LLM planning, artifact generation, SQLite tracking, and the local Flask application UI.</desc>
  <defs>
    <linearGradient id="bg" x1="0" y1="0" x2="1" y2="1">
      <stop offset="0" stop-color="#07111f"/>
      <stop offset="0.42" stop-color="#0c2035"/>
      <stop offset="1" stop-color="#071a18"/>
    </linearGradient>
    <radialGradient id="pulseA" cx="25%" cy="10%" r="70%">
      <stop offset="0" stop-color="#35f2cc" stop-opacity="0.30"/>
      <stop offset="0.55" stop-color="#35f2cc" stop-opacity="0.05"/>
      <stop offset="1" stop-color="#35f2cc" stop-opacity="0"/>
    </radialGradient>
    <radialGradient id="pulseB" cx="86%" cy="18%" r="74%">
      <stop offset="0" stop-color="#8cc8ff" stop-opacity="0.26"/>
      <stop offset="0.55" stop-color="#8cc8ff" stop-opacity="0.05"/>
      <stop offset="1" stop-color="#8cc8ff" stop-opacity="0"/>
    </radialGradient>
    <linearGradient id="card" x1="0" y1="0" x2="1" y2="1">
      <stop offset="0" stop-color="#ffffff" stop-opacity="0.16"/>
      <stop offset="1" stop-color="#ffffff" stop-opacity="0.06"/>
    </linearGradient>
    <linearGradient id="hot" x1="0" y1="0" x2="1" y2="1">
      <stop offset="0" stop-color="#40f2c8"/>
      <stop offset="1" stop-color="#7fb8ff"/>
    </linearGradient>
    <linearGradient id="warm" x1="0" y1="0" x2="1" y2="1">
      <stop offset="0" stop-color="#ffd166"/>
      <stop offset="1" stop-color="#ff8a5b"/>
    </linearGradient>
    <pattern id="grid" width="32" height="32" patternUnits="userSpaceOnUse">
      <path d="M 32 0 L 0 0 0 32" fill="none" stroke="#ffffff" stroke-opacity="0.045" stroke-width="1"/>
    </pattern>
    <filter id="shadow" x="-20%" y="-20%" width="140%" height="150%">
      <feDropShadow dx="0" dy="18" stdDeviation="18" flood-color="#000000" flood-opacity="0.35"/>
    </filter>
    <filter id="glow" x="-60%" y="-60%" width="220%" height="220%">
      <feGaussianBlur stdDeviation="4" result="blur"/>
      <feMerge>
        <feMergeNode in="blur"/>
        <feMergeNode in="SourceGraphic"/>
      </feMerge>
    </filter>
    <marker id="arrow" viewBox="0 0 10 10" refX="8.5" refY="5" markerWidth="8" markerHeight="8" orient="auto-start-reverse">
      <path d="M 0 0 L 10 5 L 0 10 z" fill="#61efd2"/>
    </marker>
    <style>
      .label { font: 700 15px Inter, ui-sans-serif, system-ui, -apple-system, BlinkMacSystemFont, "Segoe UI", sans-serif; fill: #eef8ff; }
      .small { font: 500 12px Inter, ui-sans-serif, system-ui, -apple-system, BlinkMacSystemFont, "Segoe UI", sans-serif; fill: #b8c7d6; }
      .tiny { font: 650 10px Inter, ui-sans-serif, system-ui, -apple-system, BlinkMacSystemFont, "Segoe UI", sans-serif; fill: #8fa8ba; letter-spacing: 1px; text-transform: uppercase; }
      .metric { font: 800 24px Inter, ui-sans-serif, system-ui, -apple-system, BlinkMacSystemFont, "Segoe UI", sans-serif; fill: #ffffff; }
      .title { font: 800 38px Inter, ui-sans-serif, system-ui, -apple-system, BlinkMacSystemFont, "Segoe UI", sans-serif; fill: #ffffff; letter-spacing: 0; }
      .subtitle { font: 500 16px Inter, ui-sans-serif, system-ui, -apple-system, BlinkMacSystemFont, "Segoe UI", sans-serif; fill: #b8c7d6; }
      .card { fill: url(#card); stroke: #ffffff; stroke-opacity: 0.15; stroke-width: 1; filter: url(#shadow); }
      .cardHot { fill: #0f2b3a; stroke: #61efd2; stroke-opacity: 0.55; stroke-width: 1.2; filter: url(#shadow); }
      .line { fill: none; stroke: #61efd2; stroke-width: 2.2; stroke-linecap: round; stroke-linejoin: round; marker-end: url(#arrow); }
      .lineSoft { fill: none; stroke: #7fb8ff; stroke-opacity: 0.72; stroke-width: 2; stroke-linecap: round; stroke-linejoin: round; marker-end: url(#arrow); }
      .chip { fill: #ffffff; fill-opacity: 0.08; stroke: #ffffff; stroke-opacity: 0.13; }
      .accentText { fill: #68f0d4; }
      .orangeText { fill: #ffd166; }
    </style>
  </defs>

  <rect width="1280" height="820" rx="34" fill="url(#bg)"/>
  <rect width="1280" height="820" rx="34" fill="url(#pulseA)"/>
  <rect width="1280" height="820" rx="34" fill="url(#pulseB)"/>
  <rect width="1280" height="820" rx="34" fill="url(#grid)"/>

  <text x="70" y="82" class="title">Agentic Career Workflow</text>
  <text x="70" y="112" class="subtitle">Public LinkedIn search, profile-aware LLM generation, local artifacts, and a human-owned application tracker.</text>

  <g transform="translate(930 54)">
    <rect class="chip" x="0" y="0" width="214" height="44" rx="22"/>
    <circle cx="28" cy="22" r="8" fill="url(#hot)" filter="url(#glow)"/>
    <text x="46" y="26" class="small">No LinkedIn login required</text>
  </g>

  <g transform="translate(70 170)">
    <text x="0" y="0" class="tiny">Inputs</text>
    <rect class="card" x="0" y="18" width="250" height="128" rx="18"/>
    <text x="24" y="54" class="label">Private profile context</text>
    <text x="24" y="80" class="small">Resume, CJD, blacklist</text>
    <text x="24" y="103" class="small">SCJDiR and prior roles</text>
    <text x="24" y="126" class="small">Local files stay local</text>

    <rect class="card" x="0" y="178" width="250" height="128" rx="18"/>
    <text x="24" y="214" class="label">Public job market</text>
    <text x="24" y="240" class="small">LinkedIn guest pages</text>
    <text x="24" y="263" class="small">Remote and hybrid filters</text>
    <text x="24" y="286" class="small">No credential scope</text>
  </g>

  <g transform="translate(410 170)">
    <text x="0" y="0" class="tiny">Intelligence layer</text>
    <rect class="cardHot" x="0" y="18" width="280" height="128" rx="18"/>
    <text x="24" y="54" class="label">LLM search planner</text>
    <text x="24" y="80" class="small">Profile-aware keyword strategy</text>
    <text x="24" y="103" class="small">OpenRouter or local Ollama</text>
    <text x="24" y="126" class="small">Cost-aware request shaping</text>

    <rect class="card" x="0" y="178" width="280" height="128" rx="18"/>
    <text x="24" y="214" class="label">Duplicate and quality guard</text>
    <text x="24" y="240" class="small">SQLite job ID source of truth</text>
    <text x="24" y="263" class="small">Company blacklist filtering</text>
    <text x="24" y="286" class="small">Cleaned JOD for prompts</text>
  </g>

  <g transform="translate(780 170)">
    <text x="0" y="0" class="tiny">Generation layer</text>
    <rect class="cardHot" x="0" y="18" width="310" height="128" rx="18"/>
    <text x="24" y="54" class="label">Resume tailoring</text>
    <text x="24" y="80" class="small">Static candidate facts preserved</text>
    <text x="24" y="103" class="small">SCJDiR and skill emphasis</text>
    <text x="24" y="126" class="small">ReportLab PDF output</text>

    <rect class="cardHot" x="0" y="178" width="310" height="128" rx="18"/>
    <text x="24" y="214" class="label">Cover-letter synthesis</text>
    <text x="24" y="240" class="small">Static project paragraph locked</text>
    <text x="24" y="263" class="small">Dynamic Oracle and prior-role fit</text>
    <text x="24" y="286" class="small">OpenRouter and DeepSeek ready</text>
  </g>

  <g transform="translate(260 555)">
    <text x="0" y="0" class="tiny">Local operations</text>
    <rect class="card" x="0" y="18" width="250" height="126" rx="18"/>
    <text x="24" y="54" class="label">Artifact store</text>
    <text x="24" y="80" class="small">output/resumes</text>
    <text x="24" y="103" class="small">output/cover_letters</text>
    <text x="24" y="126" class="small">Workbook compatibility</text>
  </g>

  <g transform="translate(590 555)">
    <rect class="card" x="0" y="18" width="250" height="126" rx="18"/>
    <text x="24" y="54" class="label">SQLite tracker DB</text>
    <text x="24" y="80" class="small">Resume and cover BLOBs</text>
    <text x="24" y="103" class="small">Parsed and prompt JODs</text>
    <text x="24" y="126" class="small">Applied status and notes</text>
  </g>

  <g transform="translate(920 555)">
    <rect class="card" x="0" y="18" width="250" height="126" rx="18"/>
    <text x="24" y="54" class="label">Flask application UI</text>
    <text x="24" y="80" class="small">Resume and cover links</text>
    <text x="24" y="103" class="small">Chromium job launcher</text>
    <text x="24" y="126" class="small">Human-in-the-loop apply flow</text>
  </g>

  <path class="line" d="M 320 250 C 352 250 372 250 410 250"/>
  <path class="lineSoft" d="M 320 410 C 352 410 372 410 410 410"/>
  <path class="line" d="M 690 250 C 724 250 742 250 780 250"/>
  <path class="line" d="M 690 410 C 724 410 742 410 780 410"/>
  <path class="line" d="M 935 500 C 850 545 710 548 510 618"/>
  <path class="lineSoft" d="M 945 500 C 884 540 770 552 840 618"/>
  <path class="line" d="M 840 636 C 876 636 890 636 920 636"/>
  <path class="lineSoft" d="M 590 636 C 552 636 534 636 510 636"/>

  <g transform="translate(82 720)">
    <rect class="chip" x="0" y="0" width="236" height="46" rx="23"/>
    <text x="22" y="29" class="small"><tspan class="accentText">Result:</tspan> tailored PDFs per job</text>
  </g>
  <g transform="translate(344 720)">
    <rect class="chip" x="0" y="0" width="280" height="46" rx="23"/>
    <text x="22" y="29" class="small"><tspan class="accentText">Guardrail:</tspan> no automated submission</text>
  </g>
  <g transform="translate(650 720)">
    <rect class="chip" x="0" y="0" width="254" height="46" rx="23"/>
    <text x="22" y="29" class="small"><tspan class="orangeText">Signal:</tspan> practical AI automation</text>
  </g>
  <g transform="translate(930 720)">
    <rect class="chip" x="0" y="0" width="256" height="46" rx="23"/>
    <text x="22" y="29" class="small"><tspan class="accentText">Scale:</tspan> batch regeneration by ID</text>
  </g>
</svg>
